<svg width="512" height="512" viewBox="0 0 512 512" fill="none" xmlns="http://www.w3.org/2000/svg"><defs><linearGradient id="g1" x1="0%" y1="50%" ><stop offset="0%" stop-color="#fe272a" ><animate id="a1" attributeName="stop-color" values="#fe272a; #c3fd2d" begin="0; a2.end" dur="3s" /><animate id="a2" attributeName="stop-color" values="#c3fd2d; #fe272a" begin="a1.end" dur="3s" /></stop><stop offset="100%" stop-color="#c3fd2d" ><animate id="a3" attributeName="stop-color" values="#c3fd2d; #fe272a" begin="0; a4.end" dur="3s" /><animate id="a4" attributeName="stop-color" values="#fe272a; #c3fd2d" begin="a3.end" dur="3s" /></stop></linearGradient></defs><rect id="r" x="0" y="0" rx="15" ry="15" width="512" height="512" fill="url(#g1)" /><g fill="black" font-family="Impact" font-size="24"><text x="20" y="40" >OnchainArt NFT</text><text x="20" y="482">ID: 2</text></g><g fill="#00A3FF"></g><path d="


M7 12H17M8 8.5C8 8.5 9 9 10 9C11.5 9 12.5 8 14 8C15 8 16 8.5 16 8.5M8 15.5C8 15.5 9 16 10 16C11.5 16 12.5 15 14 15C15 15 16 15.5 16 15.5M21 12C21 16.9706 16.9706 21 12 21C7.02944 21 3 16.9706 3 12C3 7.02944 7.02944 3 12 3C16.9706 3 21 7.02944 21 12Z


" style="fill-rule:evenodd;clip-rule:evenodd;fill:#020203" transform="matrix(1 0 0 1 128 128) scale(

12,12
    
)" preserveAspectRatio="none"/></svg>